# xmcd
#
# Track frame offsets:
#	150
#	25285
#	42466
#	64837
#	79908
#	94369
#	111920
#	131820
#	149863
#	169040
#
# Disc length: 2553 seconds
#
# Revision: 9
# Processed by: cddbd v1.5.2PL0 Copyright (c) Steve Scherf et al.
# Submitted via: Jack! The Knife 20 Magnifico
#
DISCID=9909f70a
DTITLE=Toto - Toto IV
DYEAR=1982
DGENRE=Rock
TTITLE0=Rosanna
TTITLE1=Make Believe
TTITLE2=I Won't Hold You Back
TTITLE3=Good For You
TTITLE4=It's A Feeling
TTITLE5=Afraid Of Love
TTITLE6=Lovers In The Night
TTITLE7=We Made It
TTITLE8=Waiting For Your Love
TTITLE9=Africa
EXTD=Toto
EXTT0=David Paich
EXTT1=David Paich
EXTT2=Steve Lukather
EXTT3=Kimball, Lukather
EXTT4=Steve Porcaro
EXTT5=Lukather, Paich, Jeff Porcaro
EXTT6=David Paich
EXTT7=Paich, J. Porcaro
EXTT8=Kimball, Paich
EXTT9=Paich, J. Porcaro
PLAYORDER=
